<?xml version="1.0" standalone="no"?>
<!DOCTYPE svg PUBLIC "-//W3C//DTD SVG 20010904//EN"
 "http://www.w3.org/TR/2001/REC-SVG-20010904/DTD/svg10.dtd">
<svg version="1.0" xmlns="http://www.w3.org/2000/svg"
 width="24.000000pt" height="24.000000pt" viewBox="0 0 24.000000 24.000000"
 preserveAspectRatio="xMidYMid meet">

<g transform="translate(0.000000,24.000000) scale(0.100000,-0.100000)"
fill="#000000" stroke="none">
<path d="M70 213 c-25 -13 -39 -29 -49 -59 -13 -37 -12 -44 5 -80 14 -30 29
-42 59 -53 36 -12 45 -12 77 3 51 24 74 75 59 127 -20 66 -89 94 -151 62z
m114 -29 c19 -19 26 -37 26 -64 0 -81 -96 -121 -154 -64 -57 58 -17 154 64
154 27 0 45 -7 64 -26z"/>
<path d="M68 173 c-20 -5 -23 -33 -9 -61 5 -9 13 -26 17 -37 7 -18 8 -17 12 8
2 15 8 27 13 27 5 0 8 17 8 38 -1 35 -2 35 -8 8 -6 -28 -31 -49 -31 -26 0 6 5
8 10 5 6 -4 10 5 10 19 0 14 -1 25 -2 25 -2 -1 -11 -3 -20 -6z"/>
<path d="M142 168 c-15 -15 -16 -45 -2 -53 6 -3 10 -18 10 -32 0 -33 10 -24
26 24 18 52 -4 91 -34 61z m28 -28 c0 -11 -4 -20 -9 -20 -14 0 -23 18 -16 30
10 17 25 11 25 -10z"/>
</g>
</svg>
