<?xml version="1.0" standalone="no"?>
<!DOCTYPE svg PUBLIC "-//W3C//DTD SVG 20010904//EN"
 "http://www.w3.org/TR/2001/REC-SVG-20010904/DTD/svg10.dtd">
<svg version="1.0" xmlns="http://www.w3.org/2000/svg"
 width="58.000000pt" height="58.000000pt" viewBox="0 0 58.000000 58.000000"
 preserveAspectRatio="xMidYMid meet">

<g transform="translate(0.000000,58.000000) scale(0.100000,-0.100000)"
fill="#000000" stroke="none">
<path d="M145 545 c-17 -16 -25 -35 -25 -60 0 -31 5 -38 31 -49 23 -10 27 -15
17 -23 -7 -6 -22 -12 -33 -14 -11 -2 -27 -18 -35 -36 -13 -28 -21 -32 -60 -36
-25 -2 43 -4 151 -5 l196 -2 7 -39 c3 -21 13 -44 21 -51 11 -9 15 -35 15 -106
l0 -94 55 0 55 0 0 91 c0 76 3 95 20 116 14 18 20 41 20 77 0 85 -36 102 -71
34 l-22 -43 -20 43 c-12 23 -26 42 -33 42 -17 0 -44 -28 -44 -46 0 -10 -13
-14 -45 -14 -37 0 -45 3 -45 18 0 22 -22 42 -65 61 l-30 14 33 13 c27 12 32
19 32 48 0 76 -74 112 -125 61z"/>
<path d="M444 505 c-33 -50 20 -104 71 -71 30 20 33 56 7 79 -27 24 -59 21
-78 -8z"/>
<path d="M202 288 c-6 -6 -12 -25 -12 -40 0 -16 -7 -31 -15 -34 -12 -5 -15
-24 -15 -85 0 -67 3 -83 21 -102 19 -21 21 -21 33 -5 17 23 45 23 62 0 12 -16
14 -16 33 5 17 18 21 35 21 97 0 63 -3 77 -19 88 -11 8 -21 28 -23 48 -3 32
-6 35 -38 38 -19 2 -41 -3 -48 -10z m76 -40 c3 -26 1 -28 -32 -28 -33 0 -36 2
-36 31 0 28 2 30 33 27 27 -2 33 -8 35 -30z m-58 -118 c0 -27 -4 -50 -10 -50
-5 0 -10 23 -10 50 0 28 5 50 10 50 6 0 10 -22 10 -50z m57 -28 c-2 -15 -4 -2
-4 28 0 30 2 43 4 27 2 -15 2 -39 0 -55z"/>
</g>
</svg>
